<svg width="114" height="144" viewBox="0 0 114 144" fill="none" xmlns="http://www.w3.org/2000/svg">
<g clip-path="url(#clip0_155_678)">
<path d="M87.9102 58.4199C101.993 58.4199 113.41 47.0032 113.41 32.9199C113.41 18.8367 101.993 7.41992 87.9102 7.41992C73.8269 7.41992 62.4102 18.8367 62.4102 32.9199C62.4102 47.0032 73.8269 58.4199 87.9102 58.4199Z" fill="url(#paint0_linear_155_678)"/>
<path d="M29.1403 129.66C39.6944 129.66 48.2503 121.104 48.2503 110.55C48.2503 99.9958 39.6944 91.4399 29.1403 91.4399C18.5861 91.4399 10.0303 99.9958 10.0303 110.55C10.0303 121.104 18.5861 129.66 29.1403 129.66Z" fill="url(#paint1_linear_155_678)"/>
<path d="M91.4304 37.2999V94.5799C91.4304 95.06 91.4104 95.5399 91.4304 96.0199C91.5104 97.7599 92.6404 99.2699 94.3904 99.6299C95.0204 99.7599 95.7004 99.7099 96.3404 99.7099H103.56C104.26 99.7099 107.61 99.3099 106.95 100.71C106.73 101.19 106.18 101.66 105.85 102.06L103.12 105.43L84.5604 128.33C82.0304 131.45 79.5004 134.57 76.9704 137.7C76.3604 138.46 75.7504 139.22 75.1304 139.97C74.6304 140.57 74.1104 140.83 73.5104 140.13C68.8304 134.64 64.4104 128.9 59.8604 123.29C54.2504 116.36 48.6404 109.44 43.0204 102.51C42.5704 101.96 41.9604 101.39 41.6104 100.77C40.8904 99.4999 43.1604 99.7099 43.9204 99.7099H51.2304C51.8004 99.7099 52.3804 99.7399 52.9604 99.7099C54.7804 99.6199 56.3404 98.3899 56.6004 96.5399C56.8804 94.5099 56.6204 92.3099 56.6004 90.2799C56.5704 85.6999 56.5404 81.1099 56.5104 76.5299L56.3304 49.7099C56.3304 49.0499 56.2204 48.3099 56.3204 47.6499C56.5004 46.4199 59.1104 46.9199 59.9804 46.9199H67.0204C67.9004 46.9199 68.7504 46.9099 69.5504 46.4699C71.0604 45.6399 71.8104 43.7799 71.2904 42.1399C71.0204 41.2799 70.3404 40.5699 69.7804 39.8799L67.3204 36.8499C64.5504 33.4299 61.7804 30.0099 59.0104 26.5899C53.0504 19.2299 47.0804 11.8699 41.1204 4.51995C39.6804 2.69995 38.0804 -0.200052 35.4204 0.00994757C33.0904 0.189948 31.4704 3.08995 30.1504 4.71995C24.1504 12.1299 18.1504 19.5299 12.1404 26.9399L3.93037 37.0699L1.57037 39.9899C0.94037 40.7699 0.26037 41.5199 0.0603699 42.5499C-0.27963 44.2799 0.74037 46.0699 2.39037 46.6799C3.11037 46.9499 3.85037 46.9199 4.60037 46.9199H11.6804C12.5604 46.9199 15.3304 46.4099 15.5704 47.6099C15.6704 48.0999 15.5704 48.7099 15.5704 49.2099V106.32C15.5704 108.25 18.5704 108.25 18.5704 106.32V49.0399C18.5704 48.5599 18.5904 48.0799 18.5704 47.5999C18.4904 45.8599 17.3604 44.3499 15.6104 43.9899C14.9804 43.8599 14.3004 43.9099 13.6604 43.9099H6.44037C5.74037 43.9099 2.39037 44.3099 3.05037 42.9099C3.27037 42.4299 3.82037 41.9599 4.15037 41.5599L6.88037 38.1899C13.0704 30.5599 19.2504 22.9199 25.4404 15.2899L33.0304 5.91995C33.6404 5.15995 34.2504 4.39995 34.8704 3.64995C35.3704 3.04995 35.8904 2.78995 36.4904 3.48995C41.1704 8.97995 45.5904 14.7199 50.1404 20.3299C55.7504 27.2599 61.3604 34.1799 66.9804 41.1099C67.4304 41.6599 68.0404 42.2299 68.3904 42.8499C69.1104 44.1199 66.8404 43.9099 66.0804 43.9099H58.7704C58.2004 43.9099 57.6204 43.8799 57.0404 43.9099C55.2204 43.9999 53.6604 45.2299 53.4004 47.0799C53.1204 49.1099 53.3804 51.3099 53.4004 53.3399C53.4304 57.9199 53.4604 62.5099 53.4904 67.0899L53.6704 93.91C53.6704 94.57 53.7804 95.3099 53.6804 95.9699C53.5004 97.2 50.8904 96.6999 50.0204 96.6999H42.9804C42.1004 96.6999 41.2504 96.7099 40.4504 97.1499C38.9404 97.9799 38.1904 99.84 38.7104 101.48C38.9804 102.34 39.6604 103.05 40.2204 103.74L42.6804 106.77L50.9904 117.03C56.9504 124.39 62.9204 131.75 68.8804 139.1C70.3304 140.89 71.9304 143.8 74.5904 143.59C76.9204 143.41 78.5404 140.51 79.8604 138.88C85.8604 131.47 91.8604 124.07 97.8704 116.66L106.08 106.53L108.44 103.61C109.07 102.83 109.75 102.08 109.95 101.05C110.29 99.3199 109.27 97.5299 107.62 96.9199C106.9 96.6499 106.16 96.6799 105.41 96.6799H98.3304C97.4504 96.6799 94.6804 97.1899 94.4404 95.9899C94.3404 95.4999 94.4404 94.8899 94.4404 94.3899V37.2799C94.4404 35.3499 91.4404 35.3499 91.4404 37.2799L91.4304 37.2999Z" fill="#656565"/>
</g>
<defs>
<linearGradient id="paint0_linear_155_678" x1="62.4102" y1="32.9159" x2="113.41" y2="32.9159" gradientUnits="userSpaceOnUse">
<stop stop-color="#8DCC9A"/>
<stop offset="1" stop-color="#5DC4C6"/>
</linearGradient>
<linearGradient id="paint1_linear_155_678" x1="10.0303" y1="110.547" x2="48.2503" y2="110.547" gradientUnits="userSpaceOnUse">
<stop stop-color="#8DCC9A"/>
<stop offset="1" stop-color="#5DC4C6"/>
</linearGradient>
<clipPath id="clip0_155_678">
<rect width="113.41" height="143.62" fill="white"/>
</clipPath>
</defs>
</svg>
