<svg width="135" height="139" viewBox="0 0 135 139" fill="none" xmlns="http://www.w3.org/2000/svg">
<g clip-path="url(#clip0_155_650)">
<path d="M67.9804 135.75H54.3104C45.6604 135.75 37.0104 135.75 28.3604 135.75C23.3104 135.75 18.2604 135.8 13.2104 135.75C7.88039 135.7 3.33039 131.52 3.15039 126.11C3.13039 125.34 3.15039 124.56 3.15039 123.79V17.99C3.15039 13.94 2.69039 9.68999 5.63039 6.39999C7.92039 3.82999 10.9504 2.99999 14.2604 2.99999H66.4604C69.3104 2.99999 72.0304 3.34999 74.3404 5.25999C76.8404 7.33999 77.9904 10.3 77.9904 13.49V45.91C77.9904 54.69 77.9904 63.46 77.9904 72.24C77.9904 81.02 77.9904 89.33 77.9904 97.88V117.52C77.9904 120.26 78.0204 123.01 77.9904 125.75C77.9204 131.26 73.5104 135.67 68.0004 135.75C66.0704 135.78 66.0704 138.78 68.0004 138.75C74.4004 138.65 79.9804 133.96 80.8504 127.55C81.0104 126.37 80.9904 125.2 80.9904 124.01C80.9904 119.29 80.9904 114.57 80.9904 109.85V17.03C80.9904 15.8 80.9904 14.57 80.9904 13.33C80.9804 9.43999 79.4804 5.66999 76.4604 3.12999C73.6804 0.77999 70.3904 -0.0100098 66.8404 -0.0100098H59.2404C50.6704 -0.0100098 42.1104 -0.0100098 33.5404 -0.0100098C27.0804 -0.0100098 20.6204 -0.0100098 14.1504 -0.0100098C10.4904 -0.0100098 7.07039 0.91999 4.31039 3.45999C1.55039 5.99999 0.15039 9.63999 0.14039 13.39C0.13039 17.14 0.14039 20.74 0.14039 24.42C0.14039 31.7 0.14039 38.98 0.14039 46.27V118.67C0.14039 121.74 -0.15961 125.02 0.35039 128.07C1.38039 134.24 6.97039 138.69 13.1304 138.76C14.5504 138.78 15.9804 138.76 17.4004 138.76H40.9304C48.6604 138.76 56.3904 138.76 64.1204 138.76H67.9804C69.9104 138.76 69.9104 135.76 67.9804 135.76V135.75Z" fill="#656565"/>
<path d="M2.24047 18.94H79.4805C81.4105 18.94 81.4105 15.94 79.4805 15.94H2.24047C0.310469 15.94 0.310469 18.94 2.24047 18.94Z" fill="#656565"/>
<path d="M31.0403 11.15H48.8803C50.8103 11.15 50.8103 8.14996 48.8803 8.14996H31.0403C29.1103 8.14996 29.1103 11.15 31.0403 11.15Z" fill="#656565"/>
<path d="M25.9304 91.85H53.7604C55.6904 91.85 55.6904 88.85 53.7604 88.85H25.9304C24.0004 88.85 24.0004 91.85 25.9304 91.85Z" fill="#656565"/>
<path d="M30.6204 99.85H49.7504C51.6804 99.85 51.6804 96.85 49.7504 96.85H30.6204C28.6904 96.85 28.6904 99.85 30.6204 99.85Z" fill="#656565"/>
<path d="M82.42 7.76002C83.29 9.96002 85.7 11.12 87.96 10.43C91.89 9.23002 95.26 13.45 93.21 17.01C92.03 19.06 92.63 21.67 94.58 23C97.97 25.32 96.77 30.59 92.71 31.21C90.38 31.57 88.71 33.66 88.88 36.01C89.18 40.11 84.31 42.45 81.29 39.66C79.56 38.06 76.88 38.06 75.14 39.66C72.12 42.45 67.25 40.1 67.55 36.01C67.72 33.65 66.05 31.56 63.72 31.21C59.66 30.59 58.46 25.32 61.85 23C63.8 21.67 64.39 19.06 63.22 17.01C61.17 13.45 64.54 9.22002 68.47 10.43C70.73 11.12 73.14 9.96002 74.01 7.76002C75.52 3.94002 80.92 3.94002 82.43 7.76002H82.42Z" fill="url(#paint0_linear_155_650)"/>
<path d="M70.3104 23.2C71.5604 24.88 72.8204 26.57 74.0704 28.25C74.6804 29.08 75.6204 29.22 76.4304 28.55C79.6604 25.9 82.8804 23.24 86.1104 20.59C86.5804 20.21 87.0504 19.82 87.5104 19.44C88.1404 18.93 88.0404 17.85 87.5104 17.32C86.8904 16.7 86.0204 16.8 85.3904 17.32C82.1604 19.97 78.9404 22.63 75.7104 25.28C75.2404 25.66 74.7704 26.05 74.3104 26.43L76.6704 26.73C75.4204 25.05 74.1604 23.36 72.9104 21.68C72.4304 21.03 71.6104 20.7 70.8604 21.14C70.2204 21.51 69.8404 22.54 70.3204 23.19L70.3104 23.2Z" fill="#0D0D0D"/>
<path d="M0.450233 49.42C7.68023 56.41 16.9502 61.49 26.6902 63.94C41.4202 67.65 57.1702 65.13 70.1602 57.33C73.8902 55.09 77.4202 52.45 80.5602 49.42C81.9502 48.08 79.8302 45.96 78.4402 47.3C71.5502 53.96 62.7402 58.75 53.4602 61.07C39.3702 64.59 24.4002 62.06 12.0402 54.54C8.64023 52.47 5.44023 50.07 2.57023 47.3C1.18023 45.96 -0.939767 48.08 0.450233 49.42Z" fill="#656565"/>
<path d="M41.0002 83.38C54.6969 83.38 65.8002 72.2766 65.8002 58.58C65.8002 44.8833 54.6969 33.78 41.0002 33.78C27.3035 33.78 16.2002 44.8833 16.2002 58.58C16.2002 72.2766 27.3035 83.38 41.0002 83.38Z" fill="url(#paint1_linear_155_650)"/>
<path d="M46.6102 56.9C46.5802 59.26 45.1302 61.48 42.8802 62.29C40.6302 63.1 37.9101 62.43 36.3501 60.48C34.8701 58.64 34.7202 55.97 35.9302 53.94C37.1402 51.91 39.5402 50.8 41.8602 51.22C44.6202 51.72 46.5801 54.11 46.6201 56.89C46.6501 58.82 49.6502 58.82 49.6201 56.89C49.5702 53.21 47.3001 49.98 43.8701 48.67C40.4401 47.36 36.4602 48.48 34.1802 51.26C31.9002 54.04 31.4501 58.17 33.3501 61.36C35.2501 64.55 38.9501 66.12 42.5701 65.47C46.6601 64.73 49.5702 60.97 49.6302 56.89C49.6602 54.96 46.6602 54.96 46.6302 56.89L46.6102 56.9Z" fill="#0D0D0D"/>
<path d="M58.17 75.35C55.56 68.24 48.86 63.31 41.21 63.31C33.56 63.31 26.68 68.38 24.16 75.63C23.52 77.46 26.42 78.24 27.05 76.43C29.13 70.45 34.86 66.31 41.21 66.31C47.56 66.31 53.12 70.3 55.27 76.15C55.93 77.95 58.83 77.17 58.16 75.35H58.17Z" fill="#0D0D0D"/>
<path d="M123.26 124.44H79.9004L81.4004 125.94V71.39L79.9004 72.89H119.84C121.92 72.89 124.21 72.67 126.18 73.43C128.86 74.47 130.86 77.01 131.22 79.86C131.31 80.61 131.28 81.38 131.28 82.14V114.7C131.28 115.27 131.28 115.84 131.28 116.42C131.24 119.2 129.85 121.8 127.45 123.26C126.17 124.04 124.76 124.41 123.27 124.44C121.34 124.47 121.34 127.47 123.27 127.44C129.37 127.33 134.2 122.46 134.28 116.36C134.31 114.01 134.28 111.66 134.28 109.31V84.16C134.28 81.15 134.4 78.23 132.86 75.49C130.68 71.62 126.68 69.89 122.4 69.89H100.6C93.8304 69.89 87.0404 69.73 80.2804 69.89C80.1604 69.89 80.0404 69.89 79.9204 69.89C79.1104 69.89 78.4204 70.58 78.4204 71.39V125.94C78.4204 126.75 79.1104 127.44 79.9204 127.44H123.28C125.21 127.44 125.21 124.44 123.28 124.44H123.26Z" fill="#656565"/>
<path d="M131.27 92.15V125.53C131.27 126.24 131.28 126.96 131.27 127.67C131.22 130.85 129.38 133.77 126.43 135.05C124.47 135.9 122.22 135.69 120.13 135.69H80.8801C74.6601 135.69 68.4101 135.51 62.2001 135.69C62.1001 135.69 62.0001 135.69 61.9001 135.69C59.9701 135.69 59.9701 138.69 61.9001 138.69H118.99C120.64 138.69 122.31 138.78 123.96 138.67C129.97 138.24 134.26 133.22 134.28 127.31C134.28 124.09 134.28 120.87 134.28 117.66V92.17C134.28 90.24 131.28 90.24 131.28 92.17L131.27 92.15Z" fill="#656565"/>
<path d="M61.6404 120.15H26.4804C24.3004 120.15 22.0904 120.26 19.9104 120.15C17.0404 120 17.3404 117.15 17.3404 115.08V111.52C17.3404 110.64 17.3004 109.77 17.8804 109.02C18.6704 108 19.8004 108.04 20.9404 108.04H53.5104C56.1704 108.04 58.8504 107.93 61.5104 108.04C63.5604 108.12 64.2004 109.64 64.2004 111.43C64.2004 113.46 64.3104 115.52 64.2004 117.54C64.1204 118.99 63.1104 120.08 61.6304 120.14C59.7104 120.22 59.7004 123.22 61.6304 123.14C65.1504 123 67.2004 120.26 67.2004 116.91C67.2004 114.81 67.2704 112.71 67.2004 110.61C67.0904 107.45 64.6804 105.12 61.5404 105.04C60.5804 105.01 59.6204 105.04 58.6604 105.04H28.9604C25.9904 105.04 23.0004 104.96 20.0304 105.04C17.0604 105.12 14.5104 107.33 14.3404 110.44C14.2304 112.53 14.3404 114.65 14.3404 116.75C14.3404 117.95 14.4204 119.1 15.0004 120.2C15.9004 121.91 17.6804 122.98 19.5804 123.13C20.3204 123.19 21.0904 123.14 21.8304 123.14H61.6404C63.5704 123.14 63.5704 120.14 61.6404 120.14V120.15Z" fill="#656565"/>
<path d="M101.95 86.54C103.94 85.32 105.92 84.09 107.91 82.87L106.09 82.64C107.62 84.17 109.15 85.7 110.68 87.23C111.16 87.71 111.91 87.78 112.5 87.46C114.49 86.39 116.47 85.32 118.46 84.25H116.95C118.63 85.47 120.31 86.7 121.99 87.92C123.55 89.06 125.05 86.46 123.5 85.33C121.82 84.11 120.14 82.88 118.46 81.66C118.03 81.35 117.39 81.42 116.95 81.66C114.96 82.73 112.98 83.8 110.99 84.87L112.81 85.1C111.28 83.57 109.75 82.04 108.22 80.51C107.76 80.05 106.97 79.93 106.4 80.28C104.41 81.5 102.43 82.73 100.44 83.95C98.8001 84.96 100.3 87.56 101.95 86.54Z" fill="#656565"/>
</g>
<defs>
<linearGradient id="paint0_linear_155_650" x1="59.8745" y1="22.8831" x2="96.5556" y2="22.8831" gradientUnits="userSpaceOnUse">
<stop stop-color="#8DCC9A"/>
<stop offset="1" stop-color="#5DC4C6"/>
</linearGradient>
<linearGradient id="paint1_linear_155_650" x1="16.2002" y1="58.576" x2="65.8002" y2="58.576" gradientUnits="userSpaceOnUse">
<stop stop-color="#8DCC9A"/>
<stop offset="1" stop-color="#5DC4C6"/>
</linearGradient>
<clipPath id="clip0_155_650">
<rect width="134.28" height="138.76" fill="white"/>
</clipPath>
</defs>
</svg>
